# xmcd
#
# Track frame offsets:
#	150
#	11573
#	27630
#	42929
#	58337
#	73110
#	84560
#	100041
#	113457
#	128672
#	141462
#	158820
#
# Disc length: 2248 seconds
# Revision: 0
# Processed by: cddbd v1.5.2PL0 Copyright (c) Steve Scherf et al.
# Submitted via: dBpowerAMP V12.0
#
DISCID=a208c60c
DTITLE=Diesel - Project Blues - Saturday Suffering Fools
DYEAR=2009
DGENRE=Blues
TTITLE0=First Time I Met The Blues
TTITLE1=Walkin' The Blues
TTITLE2=My Baby Likes To Boogaloo
TTITLE3=Don't Throw Your Love On Me So Strong
TTITLE4=Stoopid Fool
TTITLE5=I Wish You Would
TTITLE6=Whiskey and Weed
TTITLE7=Tear Out The Man
TTITLE8=It Hurts Me Too
TTITLE9=Them Changes
TTITLE10=Sweet Emotion
TTITLE11=Blues For Paddy
EXTD=
EXTT0=
EXTT1=
EXTT2=
EXTT3=
EXTT4=
EXTT5=
EXTT6=
EXTT7=
EXTT8=
EXTT9=
EXTT10=
EXTT11=
PLAYORDER=
